<mxfile host="drawio-plugin" modified="2023-03-22T09:28:33.068Z" agent="5.0 (Windows NT 6.2; Win64; x64) AppleWebKit/537.36 (KHTML, like Gecko) Chrome/104.0.5112.102 Safari/537.36" etag="IXClJ3DxxGrwRmZtcCO9" version="20.5.3" type="embed"><diagram name="Page-1" id="v4ziq1084OC3r5P064cD"><mxGraphModel dx="945" dy="740" grid="1" gridSize="10" guides="1" tooltips="1" connect="1" arrows="1" fold="1" page="1" pageScale="1" pageWidth="850" pageHeight="1100" background="#ffffff" math="0" shadow="0"><root><mxCell id="0"/><mxCell id="1" parent="0"/><mxCell id="0cACc6DXIe0P9l7puqH--3" style="edgeStyle=orthogonalEdgeStyle;rounded=0;orthogonalLoop=1;jettySize=auto;html=1;" parent="1" source="0cACc6DXIe0P9l7puqH--1" target="0cACc6DXIe0P9l7puqH--2" edge="1"><mxGeometry relative="1" as="geometry"/></mxCell><mxCell id="0cACc6DXIe0P9l7puqH--1" value="&lt;p style=&quot;margin:0px;margin-top:4px;text-align:center;text-decoration:underline;&quot;&gt;&lt;b&gt;accounts:AccountList&lt;/b&gt;&lt;/p&gt;&lt;hr&gt;&lt;p style=&quot;margin:0px;margin-left:8px;&quot;&gt;&lt;br&gt;&lt;/p&gt;" style="verticalAlign=top;align=left;overflow=fill;fontSize=12;fontFamily=Helvetica;html=1;whiteSpace=wrap;" parent="1" vertex="1"><mxGeometry x="210" y="210" width="160" height="30" as="geometry"/></mxCell><mxCell id="0cACc6DXIe0P9l7puqH--2" value="&lt;p style=&quot;margin:0px;margin-top:4px;text-align:center;text-decoration:underline;&quot;&gt;&lt;b&gt;:Account&lt;/b&gt;&lt;/p&gt;&lt;hr&gt;&lt;p style=&quot;margin:0px;margin-left:8px;&quot;&gt;currency = SGD&lt;/p&gt;&lt;p style=&quot;margin:0px;margin-left:8px;&quot;&gt;balance = 100&lt;/p&gt;" style="verticalAlign=top;align=left;overflow=fill;fontSize=12;fontFamily=Helvetica;html=1;whiteSpace=wrap;" parent="1" vertex="1"><mxGeometry x="420" y="190" width="160" height="70" as="geometry"/></mxCell></root></mxGraphModel></diagram></mxfile>